PathFileType	4	(X/Y/Z)	 s09c0301.trc
DataRate	CameraRate	NumFrames	NumMarkers	Units	OrigDataRate	OrigDataStartFrame	OrigNumFrames
200	200	4	50	mm	200	1501	2000
Frame#	Time	racr			lacr			c7			jug			rlel			rdr			llel			ldr			s2			lic			ric			lasi			rasi			rpsi			lpsi			rgt			lgt			rth1			rth2			rth3			rth4			rlfc			rmfc			rsh1			rsh2			rsh3			rsh4			rlmal			rmmal			rcal			rtoe			rmt5			lth1			lth2			lth4			lth3			llfc			lmfc			llmal			lmmal			lcal			lmt5			lsh1			lsh2			lsh3			lsh4			ltoe			SBIKE			LBIKE			RBIKE			
		X1	Y1	Z1	X2	Y2	Z2	X3	Y3	Z3	X4	Y4	Z4	X5	Y5	Z5	X6	Y6	Z6	X7	Y7	Z7	X8	Y8	Z8	X9	Y9	Z9	X10	Y10	Z10	X11	Y11	Z11	X12	Y12	Z12	X13	Y13	Z13	X14	Y14	Z14	X15	Y15	Z15	X16	Y16	Z16	X17	Y17	Z17	X18	Y18	Z18	X19	Y19	Z19	X20	Y20	Z20	X21	Y21	Z21	X22	Y22	Z22	X23	Y23	Z23	X24	Y24	Z24	X25	Y25	Z25	X26	Y26	Z26	X27	Y27	Z27	X28	Y28	Z28	X29	Y29	Z29	X30	Y30	Z30	X31	Y31	Z31	X32	Y32	Z32	X33	Y33	Z33	X34	Y34	Z34	X35	Y35	Z35	X36	Y36	Z36	X37	Y37	Z37	X38	Y38	Z38	X39	Y39	Z39	X40	Y40	Z40	X41	Y41	Z41	X42	Y42	Z42	X43	Y43	Z43	X44	Y44	Z44	X45	Y45	Z45	X46	Y46	Z46	X47	Y47	Z47	X48	Y48	Z48	X49	Y49	Z49	X50	Y50	Z50	
1501	7.5050	689.063858	1374.611915	-89.286653	708.530419	1329.461035	-444.312681	690.866137	1419.323542	-266.185537	699.361252	1278.000486	-255.021626	616.351943	1115.963631	-43.543163	722.952797	879.265658	-66.479442	589.282867	1079.851037	-514.498438	716.033175	881.086615	-463.488000	232.796962	1176.278729	-254.331931	374.684231	1130.002990	-392.351049	378.245508	1186.888817	-106.363872	403.356282	1076.088647	-356.620917	406.304089	1122.818566	-119.432188	262.056054	1217.384340	-199.757045	266.745892	1197.286296	-310.070374	349.333441	1066.150894	-42.228846	301.845432	994.973808	-406.456336	445.385315	962.431276	-50.860348	518.617660	916.300180	-66.491862	555.918116	836.251648	-68.318003	535.318511	932.758294	-95.424172	580.374312	733.142134	-100.283904	553.037909	722.714461	-197.150831	481.443054	701.868501	-69.750220	412.370392	645.646719	-81.853671	326.271127	630.621164	-78.784847	425.641886	622.839509	-111.312361	233.639431	587.301188	-76.410074	243.673481	594.261290	-152.772490	157.226369	627.003671	-114.454411	312.887636	413.543791	-130.887354	251.834251	466.144960	-62.631714	343.331855	869.070668	-402.238471	389.566597	798.120531	-394.037697	424.460576	808.428334	-383.679016	393.534971	707.961209	-385.869366	409.309209	615.373522	-369.263813	406.258093	597.074801	-274.764231	287.077018	271.249276	-401.414313	309.969751	270.658874	-332.212769	217.039446	253.405725	-367.464653	364.625456	163.393526	-431.351198	367.419269	525.696752	-400.654774	365.171914	439.134616	-398.024963	319.134809	363.271103	-402.657895	389.134343	432.231895	-366.495746	457.988371	152.584285	-363.477832	-65.099057	853.204807	-239.365797	20.631241	84.771537	-441.909534	21.098043	84.059806	-43.804319	
1502	7.5100	685.838776	1374.709174	-85.935609	710.412219	1329.885581	-441.210924	689.224308	1420.141382	-263.225928	698.104726	1278.685219	-251.896287	612.856375	1115.709667	-42.481959	722.535980	880.645363	-66.346806	591.399798	1080.556336	-513.477497	716.641665	881.185726	-464.567834	232.470475	1174.799078	-259.609988	377.480988	1128.154509	-393.930470	375.772103	1188.112792	-108.949920	405.083118	1074.671010	-357.481897	404.441890	1123.653136	-120.642729	260.822407	1216.420906	-204.703130	267.807339	1195.561570	-315.049607	346.621834	1068.011526	-44.484933	303.320306	993.034776	-408.595634	445.489676	966.770408	-52.434808	520.025322	922.481491	-66.958149	559.262295	843.434248	-68.182583	536.660488	939.365446	-95.590963	587.340140	740.481596	-98.907951	560.861872	729.883508	-196.853672	488.675214	708.610916	-69.399549	420.008880	651.964134	-81.708946	333.854090	636.422624	-79.164103	433.463495	628.929410	-110.995661	241.548088	591.883011	-76.688042	251.188151	599.042195	-153.370957	164.482073	630.616296	-114.700213	323.503099	419.570046	-131.180951	261.633031	471.136435	-62.857200	341.653497	868.292488	-403.694253	385.920503	796.082882	-395.062924	420.791356	805.543712	-384.016273	387.341342	705.795606	-387.452352	400.589411	612.881796	-370.284789	396.383675	594.319532	-275.368610	279.753003	268.285745	-401.773499	302.921225	267.613195	-332.822097	209.795011	252.195422	-367.579697	355.375954	158.937487	-431.190077	358.680599	523.254922	-401.658991	356.952640	436.670035	-398.962947	311.256607	360.638920	-403.403266	381.109850	429.922799	-367.456291	448.445704	146.000424	-363.214706	-65.171754	853.179787	-239.423856	20.612761	84.742887	-441.911852	21.096468	84.039041	-43.800250	
1503	7.5150	682.606940	1374.908585	-82.626934	712.085752	1330.366680	-437.922548	687.846299	1420.435317	-261.010524	697.520795	1279.382518	-248.863663	609.529982	1115.685129	-41.423522	722.118671	881.973280	-66.294956	593.296261	1081.198366	-512.181907	717.087267	881.269309	-465.353516	232.035280	1174.106344	-263.887071	380.080494	1126.628196	-394.813848	373.181418	1189.223278	-111.308292	406.635359	1073.218283	-358.369738	402.589043	1124.133424	-121.618744	259.570811	1215.243278	-209.352032	268.368845	1194.449058	-319.774741	344.256756	1069.609459	-46.457978	305.177268	991.774497	-411.724036	445.482141	971.000707	-53.684820	521.220347	928.445194	-67.348282	561.906515	850.207062	-68.944584	537.845110	945.766821	-95.668987	593.984364	748.361215	-98.299721	568.668479	736.325942	-196.870576	495.754039	715.430899	-69.191196	427.705554	658.095051	-81.529331	341.492082	641.563206	-79.543609	441.448363	635.089277	-110.602426	249.624888	595.868786	-77.032198	259.613774	603.052379	-153.342899	171.711040	633.256284	-114.680916	334.343879	425.088992	-131.331834	271.784581	475.969675	-62.911102	340.263398	867.814175	-405.340292	382.380351	794.555363	-396.513972	417.683753	802.772987	-384.158298	381.456806	704.134468	-389.311505	392.194067	610.766546	-371.728522	387.125224	592.225697	-276.303726	272.072120	265.908099	-402.202226	295.501327	265.122576	-333.497430	202.157487	251.303054	-367.670268	345.860600	155.063067	-431.059958	350.211950	521.109614	-402.950558	348.747586	434.562076	-400.103683	303.288568	358.336777	-404.212489	373.099497	427.937007	-368.792177	438.513017	140.359196	-363.089024	-65.218231	853.167603	-239.469490	20.600001	84.738807	-441.913477	21.081127	84.038113	-43.808600	
1504	7.5200	679.235872	1375.422684	-79.538719	713.756024	1330.614902	-434.612377	686.038490	1421.204578	-258.502267	696.832107	1280.107928	-245.814497	606.568873	1115.763369	-40.472684	721.834361	883.168442	-66.236124	594.771049	1081.744659	-510.831968	717.342893	881.328407	-465.803685	232.019401	1172.476593	-268.557439	382.815603	1124.775687	-395.698748	370.095170	1189.900869	-113.522776	408.296039	1071.615525	-359.179180	400.411795	1124.514580	-122.556716	258.300034	1214.175557	-214.061430	269.176113	1192.685585	-324.194559	341.371562	1070.956531	-48.814847	307.281764	990.556779	-414.649990	445.319560	974.915558	-54.925742	522.055532	934.061920	-67.886174	564.995696	856.721949	-68.659244	538.706444	951.925814	-95.575861	600.007725	755.520663	-97.309070	576.463777	742.816991	-197.162272	502.665965	722.172189	-69.012470	435.426532	663.799344	-81.357260	350.205300	646.522668	-78.520919	449.347056	641.090341	-110.050801	257.726788	599.082546	-77.332219	267.629758	606.579870	-153.535999	179.199729	635.284149	-114.856617	345.782467	429.902599	-131.527994	282.030871	479.855447	-63.073942	339.042796	867.385902	-407.071917	379.198751	793.159869	-398.045856	414.519314	800.402782	-385.008736	376.093640	702.850655	-391.661733	384.011410	609.055122	-373.672261	378.515690	590.693591	-277.535042	263.984518	263.974237	-402.841907	287.649185	263.222251	-334.374142	194.134363	250.831108	-367.953512	335.959626	151.818258	-431.007091	341.921655	519.249135	-404.524388	340.557117	432.757642	-401.508851	295.152163	356.421937	-405.194976	365.211210	426.182547	-370.375138	428.217178	135.430433	-362.839688	-65.254714	853.135380	-239.430696	20.586904	84.732771	-441.925726	21.080825	84.056873	-43.827403	
